<svg width="166" height="37" viewBox="0 0 166 37" fill="none" xmlns="http://www.w3.org/2000/svg">
<path d="M0.47998 35.6028V1.11707H8.14891V35.6028H0.47998ZM6.34158 22.0723V15.478H23.5845V22.0723H6.34158ZM6.34158 7.71137V1.11707H24.366V7.71137H6.34158Z" fill="#222222"/>
<path d="M28.608 35.6028V0.140137H36.0816V35.6028H28.608Z" fill="#222222"/>
<path d="M52.7745 36.1401C50.3322 36.1401 48.1178 35.6028 46.1314 34.5282C44.1775 33.421 42.6307 31.923 41.491 30.0343C40.3512 28.1456 39.7813 26.0289 39.7813 23.6842C39.7813 21.3396 40.3512 19.2392 41.491 17.383C42.6307 15.5268 44.1775 14.0614 46.1314 12.9868C48.0853 11.8796 50.2996 11.326 52.7745 11.326C55.2494 11.326 57.4638 11.8633 59.4177 12.938C61.3716 14.0126 62.9184 15.4943 64.0581 17.383C65.1979 19.2392 65.7678 21.3396 65.7678 23.6842C65.7678 26.0289 65.1979 28.1456 64.0581 30.0343C62.9184 31.923 61.3716 33.421 59.4177 34.5282C57.4638 35.6028 55.2494 36.1401 52.7745 36.1401ZM52.7745 29.3504C53.8492 29.3504 54.7935 29.1225 55.6076 28.6666C56.4218 28.1781 57.0405 27.5106 57.4638 26.6639C57.9197 25.7846 58.1477 24.7914 58.1477 23.6842C58.1477 22.577 57.9197 21.6164 57.4638 20.8023C57.0079 19.9556 56.3729 19.3043 55.5588 18.8484C54.7773 18.3599 53.8492 18.1157 52.7745 18.1157C51.7325 18.1157 50.8044 18.3599 49.9903 18.8484C49.1762 19.3043 48.5412 19.9556 48.0853 20.8023C47.6294 21.649 47.4014 22.6259 47.4014 23.7331C47.4014 24.8077 47.6294 25.7846 48.0853 26.6639C48.5412 27.5106 49.1762 28.1781 49.9903 28.6666C50.8044 29.1225 51.7325 29.3504 52.7745 29.3504Z" fill="#222222"/>
<path d="M74.8242 35.6028L66.618 11.8633H73.945L79.0251 29.1062L76.8758 29.1551L82.4932 11.8633H88.5502L94.2164 29.1551L92.0183 29.1062L97.1472 11.8633H104.474L96.2679 35.6028H90.1621L84.6424 19.1903H86.4986L80.8812 35.6028H74.8242Z" fill="#222222"/>
<path d="M105.523 35.6028L97.3163 11.8633H104.643L109.723 29.1062L107.574 29.155L113.191 11.8633H119.248L124.915 29.155L122.717 29.1062L127.845 11.8633H135.173L126.966 35.6028H120.86L115.341 19.1903H117.197L111.58 35.6028H105.523Z" fill="#222222"/>
<path d="M136.163 35.6028L127.957 11.8633H135.284L140.364 29.1062L138.214 29.155L143.832 11.8633H149.889L155.555 29.155L153.357 29.1062L158.486 11.8633H165.813L157.606 35.6028H151.501L145.981 19.1903H147.837L142.22 35.6028H136.163Z" fill="#222222"/>
</svg>
